<?xml version="1.0" standalone="no"?>
<!DOCTYPE svg PUBLIC "-//W3C//DTD SVG 20010904//EN"
 "http://www.w3.org/TR/2001/REC-SVG-20010904/DTD/svg10.dtd">
<svg version="1.0" xmlns="http://www.w3.org/2000/svg"
 width="1104.000000pt" height="1104.000000pt" viewBox="0 0 1104.000000 1104.000000"
 preserveAspectRatio="xMidYMid meet">
<metadata>
Created by potrace 1.14, written by Peter Selinger 2001-2017
</metadata>
<g transform="translate(0.000000,1104.000000) scale(0.100000,-0.100000)"
fill="#000000" stroke="none">
<path d="M4530 11034 c-21 -6 -38 -35 -45 -76 -3 -18 -8 -34 -10 -36 -2 -2 0
-14 4 -26 5 -11 5 -30 1 -41 -4 -11 -4 -30 1 -42 5 -13 4 -25 -2 -28 -5 -4 -6
-12 -2 -18 9 -15 10 -46 2 -72 -4 -11 -3 -29 1 -40 4 -11 3 -28 -2 -37 -5 -10
-5 -18 -1 -18 10 0 10 -41 0 -57 -4 -5 -4 -13 0 -17 10 -9 10 -56 0 -56 -4 0
-3 -8 2 -19 6 -10 8 -21 5 -24 -9 -8 -11 -77 -2 -77 3 0 3 -12 -1 -27 -4 -16
-4 -40 0 -55 4 -16 3 -28 -2 -28 -6 0 -6 -7 0 -18 6 -11 6 -24 0 -34 -6 -10
-6 -19 0 -23 7 -4 7 -15 1 -30 -5 -14 -6 -25 -1 -25 5 0 6 -12 2 -27 -4 -16
-4 -40 0 -55 4 -17 4 -28 -2 -28 -6 0 -6 -6 0 -18 6 -11 6 -24 0 -34 -6 -10
-6 -19 0 -23 7 -4 7 -15 1 -30 -5 -14 -6 -25 -1 -25 5 0 6 -12 2 -27 -4 -16
-4 -40 0 -55 4 -17 4 -28 -2 -28 -6 0 -6 -6 0 -18 6 -11 6 -24 0 -34 -6 -10
-6 -19 0 -23 7 -4 7 -15 1 -30 -6 -15 -6 -25 0 -25 5 0 5 -12 1 -27 -4 -16 -4
-40 0 -55 4 -16 3 -28 -2 -28 -6 0 -6 -7 0 -18 6 -11 6 -24 0 -34 -6 -10 -6
-19 0 -23 7 -4 7 -15 1 -30 -6 -15 -6 -25 0 -25 5 0 5 -12 1 -27 -4 -16 -5
-39 -1 -53 4 -14 4 -34 0 -45 -4 -11 -4 -32 1 -47 5 -17 4 -28 -2 -28 -6 0 -7
-5 -4 -11 10 -15 12 -109 2 -109 -4 0 -3 -8 2 -18 6 -11 6 -24 0 -35 -6 -9 -6
-17 -2 -17 10 0 10 -41 0 -57 -4 -5 -4 -13 0 -17 10 -9 10 -56 0 -56 -4 0 -3
-8 2 -18 6 -11 6 -24 0 -35 -6 -9 -6 -17 -2 -17 4 0 8 -11 8 -25 0 -14 -4 -25
-8 -25 -4 0 -3 -8 2 -18 6 -11 6 -24 0 -35 -6 -9 -6 -17 -2 -17 10 0 10 -41 0
-57 -4 -5 -4 -13 0 -17 10 -9 10 -56 0 -56 -4 0 -3 -8 2 -18 5 -10 6 -24 2
-31 -8 -13 -6 -59 3 -68 3 -3 1 -14 -4 -24 -7 -11 -7 -20 0 -24 6 -4 6 -15 0
-30 -5 -14 -6 -25 -2 -25 4 0 7 -11 7 -25 0 -14 -3 -25 -7 -25 -4 0 -3 -11 2
-25 6 -15 6 -26 0 -30 -6 -4 -7 -13 -1 -23 6 -11 6 -24 0 -34 -6 -10 -6 -19 0
-22 5 -4 6 -18 2 -34 -5 -15 -5 -36 -1 -47 4 -11 4 -28 -1 -37 -6 -10 -5 -19
1 -23 6 -4 6 -15 0 -30 -5 -14 -6 -25 -2 -25 8 0 8 -52 -1 -66 -3 -6 -2 -16 3
-24 5 -8 5 -22 -1 -32 -6 -12 -6 -18 0 -18 6 0 6 -11 2 -27 -4 -16 -4 -40 0
-55 4 -16 3 -28 -2 -28 -5 0 -4 -11 1 -25 6 -15 6 -26 0 -30 -6 -4 -7 -13 -1
-23 6 -11 6 -24 0 -35 -7 -11 -7 -17 0 -17 6 0 7 -11 2 -27 -4 -16 -4 -40 0
-55 4 -16 3 -28 -2 -28 -5 0 -4 -11 1 -25 6 -15 6 -26 0 -30 -6 -4 -7 -13 -1
-23 6 -11 6 -24 0 -35 -7 -11 -7 -17 0 -17 6 0 6 -11 1 -29 -4 -16 -6 -32 -4
-34 9 -9 10 -117 2 -117 -5 0 -4 -8 1 -18 6 -11 6 -24 0 -35 -6 -9 -6 -17 -2
-17 10 0 10 -41 0 -57 -4 -5 -4 -13 0 -17 10 -9 10 -56 0 -56 -4 0 -3 -8 2
-18 6 -11 6 -24 0 -35 -6 -9 -6 -17 -2 -17 4 0 8 -11 8 -25 0 -14 -4 -25 -8
-25 -4 0 -3 -8 2 -18 6 -11 6 -24 0 -35 -6 -9 -6 -17 -2 -17 10 0 10 -41 0
-57 -4 -5 -4 -13 0 -17 10 -9 10 -56 0 -56 -4 0 -3 -8 2 -19 6 -10 8 -21 5
-24 -9 -8 -11 -77 -2 -77 3 0 3 -12 -1 -27 -4 -16 -4 -40 0 -55 4 -16 3 -28
-2 -28 -6 0 -6 -7 0 -18 6 -11 6 -24 0 -34 -6 -10 -6 -19 0 -23 7 -4 7 -15 1
-30 -6 -15 -6 -25 0 -25 5 0 5 -12 1 -27 -4 -16 -4 -40 0 -55 4 -16 3 -28 -2
-28 -6 0 -6 -7 0 -18 6 -11 6 -24 0 -34 -6 -10 -6 -19 0 -23 7 -4 7 -15 1 -30
-6 -15 -6 -25 0 -25 5 0 5 -12 1 -27 -4 -16 -4 -40 0 -55 4 -16 3 -28 -2 -28
-6 0 -6 -7 0 -18 6 -11 6 -24 0 -34 -6 -10 -6 -19 0 -23 7 -4 7 -15 1 -30 -6
-15 -6 -25 0 -25 5 0 5 -12 1 -27 -4 -16 -4 -40 0 -55 4 -16 3 -28 -2 -28 -6
0 -6 -7 0 -18 6 -11 6 -24 0 -34 -6 -10 -6 -19 0 -23 7 -4 7 -15 1 -30 -6 -15
-6 -25 0 -25 5 0 5 -12 1 -27 -4 -16 -5 -39 -1 -53 4 -14 4 -34 0 -45 -4 -11
-4 -32 1 -47 5 -17 4 -28 -2 -28 -6 0 -7 -5 -4 -11 10 -15 12 -109 2 -109 -4
0 -3 -8 2 -18 6 -11 6 -24 0 -35 -6 -9 -6 -17 -2 -17 10 0 10 -41 0 -57 -4 -5
-4 -13 0 -17 10 -9 10 -56 0 -56 -4 0 -3 -8 2 -18 6 -11 6 -24 0 -35 -6 -9 -6
-17 -2 -17 4 0 8 -11 8 -25 0 -14 -4 -25 -8 -25 -4 0 -3 -8 2 -18 6 -11 6 -24
0 -35 -6 -9 -6 -17 -2 -17 10 0 10 -41 0 -57 -4 -5 -4 -13 0 -17 10 -9 10 -56
0 -56 -4 0 -3 -8 2 -18 5 -10 6 -24 2 -31 -8 -13 -6 -59 3 -68 3 -3 1 -14 -4
-24 -7 -11 -7 -20 0 -24 6 -4 6 -15 0 -30 -5 -14 -6 -25 -2 -25 4 0 7 -11 7
-25 0 -14 -3 -25 -7 -25 -4 0 -3 -11 2 -25 6 -15 6 -26 0 -30 -6 -4 -7 -13 -1
-23 6 -11 6 -24 0 -34 -6 -10 -6 -19 0 -23 7 -4 7 -15 1 -30 -5 -14 -6 -25 -2
-25 4 0 7 -11 7 -25 0 -14 -3 -25 -7 -25 -4 0 -3 -11 2 -25 6 -15 6 -26 -1
-30 -5 -4 -6 -13 0 -22 5 -9 5 -29 1 -44 -5 -15 -6 -30 -4 -32 3 -3 7 -36 10
-75 4 -61 17 -144 38 -231 11 -47 51 -156 59 -159 4 -2 7 -9 7 -16 0 -37 134
-248 204 -321 23 -25 41 -45 39 -45 -2 0 16 -17 39 -38 24 -20 48 -41 54 -47
6 -5 23 -19 38 -30 16 -11 33 -25 40 -30 30 -27 216 -129 216 -119 0 3 6 2 13
-4 7 -6 44 -22 82 -35 64 -23 102 -33 205 -54 19 -4 114 -7 210 -7 135 0 191
4 245 18 103 26 165 45 213 67 116 52 142 66 211 113 40 28 83 57 95 65 38 26
197 193 212 224 9 16 14 40 11 53 -2 13 0 24 4 24 5 0 5 10 0 23 -4 12 -5 33
-1 47 4 14 3 37 -1 51 -4 15 -3 32 1 40 5 7 6 17 3 23 -8 13 -8 138 0 159 3 9
3 17 -1 17 -9 0 -7 54 3 69 3 6 2 11 -2 11 -10 0 -9 53 2 69 3 6 2 11 -2 11
-5 0 -8 15 -6 32 2 18 3 47 3 63 -1 17 -2 36 -1 43 2 21 2 36 -1 100 -2 34 0
62 4 62 4 0 4 10 -1 22 -4 13 -5 34 -1 48 4 14 4 34 0 45 -4 11 -4 32 1 47 4
14 5 29 2 32 -8 7 -7 112 1 125 4 6 3 11 -1 11 -5 0 -8 15 -6 32 2 29 3 111 2
158 0 8 0 29 0 45 1 17 1 38 1 48 -1 9 0 32 0 50 0 17 -1 49 -3 70 -1 21 1 41
5 44 5 2 6 9 2 14 -9 14 -11 79 -3 79 4 0 3 16 -1 35 -4 19 -4 37 1 40 4 3 5
13 2 23 -4 9 -6 30 -6 47 2 30 3 117 2 145 0 8 0 29 0 45 1 17 1 38 1 48 -1 9
0 32 0 50 0 17 -1 49 -3 70 -1 21 1 41 5 44 5 2 6 9 2 14 -9 14 -11 79 -3 79
4 0 3 16 -1 35 -4 19 -4 37 1 40 4 3 5 13 2 23 -4 9 -6 30 -6 47 2 30 3 117 2
145 0 8 0 29 0 45 1 17 1 38 1 48 -1 9 0 32 0 50 0 17 -1 49 -3 70 -1 21 1 41
5 44 5 2 6 9 2 14 -9 14 -11 79 -3 79 4 0 3 16 -1 35 -4 19 -4 37 1 40 4 3 5
13 2 23 -4 9 -6 30 -6 47 2 30 3 117 2 145 0 8 0 29 0 45 1 17 1 38 1 48 -1 9
0 32 0 50 0 17 -1 49 -3 70 -1 21 1 41 5 44 5 2 6 9 2 14 -9 14 -11 79 -3 79
4 0 3 16 -1 35 -4 20 -4 38 1 41 5 3 6 10 3 16 -4 6 -6 47 -5 92 2 101 2 89
-1 164 -2 34 0 62 4 62 4 0 4 10 -1 22 -4 13 -5 34 -1 48 4 14 4 34 0 45 -4
11 -4 32 1 47 4 14 5 29 2 32 -8 7 -7 112 1 125 4 6 4 11 -1 11 -10 0 -9 143
1 159 4 6 3 11 -1 11 -10 0 -9 53 2 69 3 6 2 11 -2 11 -10 0 -9 53 2 69 3 6 2
11 -2 11 -5 0 -8 15 -6 33 6 47 5 149 -1 154 -3 3 -1 16 4 29 5 13 6 24 2 24
-6 0 -8 48 -2 75 1 6 2 12 0 15 -5 15 -4 110 2 110 4 0 4 10 -1 23 -4 12 -5
33 -1 47 4 14 3 37 -1 51 -4 15 -3 32 1 40 5 7 6 17 3 23 -8 13 -8 138 0 159
3 9 3 17 -1 17 -9 0 -7 54 3 69 3 6 2 11 -2 11 -10 0 -9 53 2 69 3 6 2 11 -2
11 -5 0 -8 15 -6 33 2 17 3 46 3 62 -1 17 -2 36 -1 43 2 21 2 36 -1 100 -2 34
0 62 4 62 4 0 4 10 -1 22 -4 13 -5 34 -1 48 4 14 4 34 0 45 -4 11 -4 32 1 47
4 14 5 29 2 32 -8 7 -7 112 1 125 4 6 3 11 -1 11 -5 0 -8 15 -6 33 2 28 3 110
2 157 0 8 0 29 0 45 1 17 1 38 1 48 -1 9 0 32 0 50 0 17 -1 49 -3 70 -1 21 1
41 5 44 5 2 6 9 2 14 -9 14 -11 79 -3 79 4 0 3 16 -1 35 -4 19 -4 37 1 40 4 3
5 13 2 23 -4 9 -6 30 -6 47 5 104 5 136 0 141 -3 3 -2 18 2 32 5 15 5 36 1 47
-4 11 -4 31 0 45 3 14 4 36 0 50 -4 14 -3 35 1 48 5 12 5 22 1 22 -9 0 -7 64
2 79 4 5 2 12 -4 16 -6 4 -8 10 -5 15 7 12 8 88 1 119 -3 13 -15 35 -27 47
l-22 24 -1061 -1 c-584 -1 -1068 -3 -1076 -5z"/>
<path d="M3416 7703 c-1 -2 -27 -5 -57 -8 -72 -6 -130 -14 -152 -21 -10 -3
-30 -7 -45 -10 -27 -4 -34 -5 -87 -18 -71 -18 -231 -69 -242 -79 -7 -5 -13 -7
-13 -4 0 11 -203 -84 -305 -141 -71 -41 -236 -150 -250 -166 -5 -6 -21 -19
-35 -27 -28 -19 -144 -124 -202 -184 -80 -82 -97 -102 -157 -180 -34 -44 -69
-88 -77 -98 -8 -9 -14 -20 -14 -24 0 -3 -11 -21 -25 -39 -14 -18 -25 -37 -25
-43 0 -6 -4 -11 -9 -11 -5 0 -13 -10 -16 -21 -4 -12 -22 -47 -41 -77 -18 -31
-31 -59 -28 -64 3 -4 0 -8 -5 -8 -6 0 -11 -4 -11 -9 0 -5 -15 -42 -34 -83 -33
-71 -102 -264 -110 -310 -3 -13 -5 -24 -7 -25 -2 -4 -3 -7 -17 -73 -17 -77
-21 -99 -28 -150 -3 -24 -9 -56 -12 -70 -3 -14 -7 -1315 -9 -2892 l-3 -2868
1119 0 1119 0 -1 3853 -2 3852 -108 0 c-60 0 -110 -1 -111 -2z"/>
<path d="M7410 3856 l0 -3856 1120 0 1120 0 -3 2862 c-2 1575 -6 2874 -9 2888
-3 14 -9 48 -12 75 -7 55 -13 85 -30 163 -51 225 -138 446 -255 642 -43 72
-128 200 -140 210 -4 3 -19 22 -34 42 -65 88 -166 190 -337 341 -29 26 -186
134 -260 179 -60 36 -238 128 -260 133 -8 3 -43 16 -70 27 -93 38 -301 97
-400 112 -19 3 -48 8 -63 11 -15 3 -50 7 -76 9 -27 2 -52 5 -57 8 -5 2 -60 5
-121 7 l-113 2 0 -3855z"/>
<path d="M4730 1598 c-1 -32 -1 -1537 -1 -1570 l1 -28 808 0 809 0 -1 808 -1
807 -807 3 -808 2 0 -22z"/>
</g>
</svg>
