<svg width="46" height="32" viewBox="0 0 46 32" fill="none" xmlns="http://www.w3.org/2000/svg">
<g id="Silhouette_of_a_Bear 1" clip-path="url(#clip0_10134_124470)">
<g id="Centerline">
<path id="path4" d="M22.0965 31.7319C21.3111 31.4378 20.5243 31.1602 19.7375 30.8824C19.7864 30.813 19.8354 30.7474 19.8847 30.6852C20.5123 29.8915 21.1882 29.6501 22.2353 29.3819C22.2623 29.252 22.2892 29.122 22.3148 29.0086C22.4486 28.9862 22.5812 28.9803 22.7138 28.9744C22.7987 26.8843 20.2376 24.4336 19.155 22.6957C18.5736 22.5336 17.9909 22.3877 17.4082 22.242C17.2808 22.595 17.1535 22.9481 17.0262 23.3012C16.91 23.3084 16.7774 23.3143 16.6449 23.3202C16.6179 23.4501 16.591 23.58 16.5464 23.725C16.4139 23.7309 16.2813 23.7368 16.1487 23.7427C15.8684 24.1496 15.5868 24.5727 15.2888 24.9948C15.1562 25.0007 15.0238 25.0065 14.8912 25.0124C14.8643 25.1424 14.8373 25.2723 14.7926 25.4173C14.3464 25.6292 13.9001 25.8411 13.4375 26.0517C13.4105 26.1816 13.3836 26.3116 13.3389 26.4566C12.0144 26.6467 10.8601 27.8364 9.95806 28.8235L9.80015 28.9965C8.4719 29.0882 7.12723 29.1786 5.78128 29.2854C5.77344 28.9711 5.7479 28.6718 5.72233 28.3725C4.87311 28.6678 4.52541 28.4749 3.67164 28.2083C3.79102 27.9536 3.9105 27.699 4.01354 27.4431C4.56384 27.347 5.0194 27.2784 5.4046 27.2142C7.10588 26.9306 7.42931 26.7368 8.42916 24.6762C8.57946 24.6553 8.71203 24.6494 8.84461 24.6435C9.53829 23.6093 9.53829 23.6093 10.9174 20.6157C10.5296 20.7167 10.1254 20.8164 9.71982 20.9325C9.69289 21.0624 9.66593 21.1924 9.62129 21.3375C8.41252 21.1745 6.80271 21.2767 6.19167 22.5156C5.51238 22.47 5.19816 22.4492 4.97693 22.3949C4.78626 22.3483 4.66442 22.2767 4.43824 22.144C4.54062 21.6899 4.62533 21.2508 4.71004 20.8119C3.24452 21.9988 2.15846 21.7467 0.640625 20.7004C0.686148 19.5153 1.286 19.0349 1.77178 17.918C1.48009 14.7575 3.3408 12.7602 3.44559 9.59843C3.95475 9.83739 4.46262 10.0926 4.95415 10.3466C6.09035 8.73705 7.74807 7.8297 9.50955 6.86452C10.0202 6.26156 10.7692 4.95113 11.581 4.91708C11.6078 4.78712 11.6348 4.65719 11.6617 4.5273C11.7956 4.50499 11.9281 4.49909 12.0607 4.49319C12.0877 4.36328 12.1145 4.23328 12.1415 4.10337C12.2918 4.08246 12.4243 4.07654 12.5569 4.07065C12.5838 3.94074 12.6107 3.81074 12.6363 3.69728C13.8229 3.31351 14.7667 1.837 15.614 0.947317C16.2972 0.869916 16.2972 0.869917 18.1223 0.141113C19.8206 0.376221 21.5026 0.610016 23.1833 0.860251C23.2055 0.99411 23.2114 1.12668 23.2173 1.25927C24.0093 1.47138 24.3243 1.66174 24.9221 2.23797C31.0356 3.4213 31.0356 3.4213 32.1221 3.87162C32.1445 4.00552 32.1504 4.13805 32.1563 4.27055C32.3682 4.30403 32.5638 4.33623 32.758 4.38489C32.7803 4.51875 32.7862 4.65132 32.7921 4.7839C33.004 4.8174 33.2161 4.85088 33.4103 4.89943C33.8433 6.08992 37.2649 7.07411 38.4775 7.60057C38.5012 7.71801 38.507 7.85058 38.5129 7.98316C40.5386 8.45913 41.6433 12.8076 41.9363 14.7134C41.8003 16.6177 41.6478 18.5208 41.4941 20.4403C42.6127 21.5206 44.6673 23.2869 44.9591 24.7963C45.0891 24.8232 45.219 24.8501 45.3476 24.8935C45.5253 26.1791 43.4617 28.8537 42.8591 30.1924C41.4403 30.5905 40.0326 30.6428 38.6506 30.1688C38.7742 28.6266 40.5684 28.4898 40.7819 26.8557C39.9189 26.704 39.0546 26.5688 38.1739 26.4321C37.5818 28.4651 37.1053 29.0543 36.6517 30.3885C36.5191 30.3944 36.3866 30.4002 36.254 30.4061C36.227 30.5361 36.2001 30.666 36.1568 30.7946C35.3856 31.1456 34.5981 31.4952 33.8093 31.8614C31.397 31.8827 31.1351 31.6471 30.5668 31.7337C30.5622 31.5847 30.5563 31.4521 30.5505 31.3195C30.3359 31.3189 30.1199 31.3347 29.904 31.3503C29.7997 31.2099 29.6953 31.0694 29.5911 30.929L29.5935 30.9254C29.7107 30.7452 29.8551 30.582 30.0192 30.4322C30.7532 29.762 31.8802 29.3594 32.7255 28.9016C32.74 28.3083 32.7382 27.7137 32.735 27.1356C32.6051 27.1087 32.4751 27.0818 32.3288 27.0535C32.2724 26.1079 31.8971 25.4339 31.5627 23.4258C31.3291 23.4566 31.0941 23.5037 30.8428 23.5497C30.8159 23.6795 30.7889 23.8095 30.7455 23.9382C30.5035 23.8692 30.2436 23.8153 29.9837 23.7616C29.9069 24.1021 29.8301 24.4427 29.7532 24.7833C29.2999 24.4662 28.8464 24.1492 28.3753 23.8473C28.3102 24.0403 28.2453 24.2332 28.1803 24.426C28.0465 24.4484 27.8962 24.4693 27.7459 24.4904C27.4402 26.0211 27.708 27.2663 27.5152 28.5357C27.4007 29.2898 27.1237 30.0525 26.4675 30.8887C26.4339 30.9314 26.3998 30.9741 26.3643 31.0172C25.0005 31.5519 23.4407 31.0306 22.0966 31.732L22.0965 31.7319Z" fill="black"/>
</g>
<path id="Polygon 2" d="M18.0355 7.66048L21.2263 19.3574L29.7608 10.7457L18.0355 7.66048Z" fill="#E00000"/>
</g>
<defs>
<clipPath id="clip0_10134_124470">
<rect width="45" height="32.0039" fill="white" transform="translate(0.5)"/>
</clipPath>
</defs>
</svg>
