<svg width="46" height="32" viewBox="0 0 46 32" fill="none" xmlns="http://www.w3.org/2000/svg">
<g id="strong-bull-side-view-svgrepo-com 1">
<g id="Group">
<g id="Group_2">
<path id="Vector" d="M38.2061 20.1179C37.5418 19.995 37.3218 19.113 37.3384 18.3958C37.3564 17.5645 37.6789 17.0412 38.2269 16.9576C38.7196 16.8879 39.1943 16.898 39.6454 16.9563C39.5305 16.5153 39.3852 16.1161 39.2012 15.8069C38.577 14.7552 37.5335 14.8882 36.3337 13.6743C33.4938 10.7965 29.2978 6.30172 26.3334 6.42971C22.1235 6.60965 8.03506 12.6934 7.32096 12.9532C6.60823 13.213 3.93586 11.871 3.89711 11.079C3.85698 10.2845 5.58966 8.15816 6.81028 7.97949C8.03091 7.79828 10.5095 8.05172 11.1794 7.72605C11.8492 7.40165 12.7543 6.06856 12.7543 5.52747C12.7543 4.98764 11.1794 3.86998 11.1794 3.86998C11.1794 3.86998 10.5884 2.96774 9.80096 3.00322C9.0135 3.04123 7.95064 3.94094 7.24207 3.86998C7.43859 4.55426 9.0135 5.2753 9.67364 5.24488C10.3324 5.217 11.0202 4.66451 11.0202 4.66451C11.0202 4.66451 11.6111 4.87866 11.9267 5.31331C12.1467 5.6149 11.7689 6.35875 11.1392 6.68188C10.5068 7.00755 7.55761 6.50321 6.4131 6.75538C5.26997 7.00628 1.84751 10.0007 2.00528 11.2235C2.16166 12.4501 5.66439 15.262 6.96252 15.48C6.09756 17.1704 7.00265 21.2799 6.611 21.5689C6.21658 21.8578 4.72055 21.1342 4.39671 21.8616C4.07149 22.589 6.21658 26.1447 5.90104 26.6148C5.58551 27.0824 5.64086 28.1494 5.64086 28.1494L8.9706 28.1279C8.93185 27.1914 8.03783 26.5794 8.03783 26.5794L7.56868 24.7014C7.56868 24.7014 10.0335 23.5127 10.8209 22.3571C11.0576 22.9349 12.1606 23.9803 12.6325 24.1261C13.1044 24.2718 11.6886 24.415 11.9115 24.9966C12.1329 25.5808 17.3185 27.2979 17.4029 27.6324C16.8078 28.4877 17.2368 29.0656 17.2368 29.0656L20.1929 29.1353C19.8386 27.2636 18.319 26.6643 18.319 26.6643L15.8903 24.2274C15.8903 24.2274 18.2637 21.7501 18.4934 19.2309C20.0614 21.0721 23.4645 21.3877 23.4645 21.3877C23.4645 21.3877 20.8973 27.0343 20.7257 27.4068C20.5569 27.7781 21.098 29.1353 21.098 29.1353H24.3253C24.1302 28.4295 22.4736 27.403 22.4736 27.403L26.9631 21.3395L28.1062 21.323C28.1062 21.323 29.3656 26.2917 29.1303 26.7593C28.8937 27.2269 28.931 28.5612 28.931 28.5612L32.2386 28.4877C32.1584 27.5145 31.137 26.9025 31.137 26.9025L31.2131 21.2787C31.2131 21.2787 33.0275 21.8223 34.0156 21.2407C33.6544 22.2557 33.4205 24.6355 33.6184 25.136C33.8163 25.6366 34.5207 25.9673 35.0743 25.8951C35.6251 25.8216 38.8926 22.5801 39.525 21.5562C39.7298 21.2255 39.8558 20.6603 39.907 19.9988C39.6966 20.014 39.4835 20.0356 39.2787 20.0672C38.8469 20.1268 38.4829 20.1686 38.2061 20.1179Z" fill="black"/>
<path id="Vector_2" d="M42.0424 18.2865C41.0196 17.6377 39.7049 17.1803 38.303 17.3868C37.5889 17.4894 37.712 19.5841 38.303 19.6931C38.8939 19.8021 40.0357 19.3307 41.0598 19.6576C42.0811 19.9807 43.4996 21.4596 43.4996 20.992C43.4983 20.5256 43.0651 18.9378 42.0424 18.2865Z" fill="black"/>
</g>
</g>
<path id="Polygon 2" d="M27.9782 9.13412L24.7874 20.8311L16.2529 12.2193L27.9782 9.13412Z" fill="#05A545"/>
</g>
</svg>
