<svg width="44" height="46" viewBox="0 0 44 46" fill="none" xmlns="http://www.w3.org/2000/svg">
<g id="Group">
<path id="Vector" d="M21.9984 44.0931C36.5828 44.0931 43.8719 34.2993 43.8719 22.2181C43.8719 10.1399 36.5828 0.346191 21.9969 0.346191C7.41406 0.346191 0.125 10.1399 0.125 22.2196C0.125 34.2993 7.4125 44.0931 21.9984 44.0931Z" fill="url(#paint0_radial_10876_3228)"/>
<path id="Vector_2" d="M21.9984 44.0931C36.5828 44.0931 43.8719 34.2993 43.8719 22.2181C43.8719 10.1399 36.5828 0.346191 21.9969 0.346191C7.41406 0.346191 0.125 10.1399 0.125 22.2196C0.125 34.2993 7.4125 44.0931 21.9984 44.0931Z" fill="url(#paint1_radial_10876_3228)"/>
<path id="Vector_3" d="M21.9984 44.0931C36.5828 44.0931 43.8719 34.2993 43.8719 22.2181C43.8719 10.1399 36.5828 0.346191 21.9969 0.346191C7.41406 0.346191 0.125 10.1399 0.125 22.2196C0.125 34.2993 7.4125 44.0931 21.9984 44.0931Z" fill="url(#paint2_radial_10876_3228)"/>
<path id="Vector_4" d="M21.9984 44.0931C36.5828 44.0931 43.8719 34.2993 43.8719 22.2181C43.8719 10.1399 36.5828 0.346191 21.9969 0.346191C7.41406 0.346191 0.125 10.1399 0.125 22.2196C0.125 34.2993 7.4125 44.0931 21.9984 44.0931Z" fill="url(#paint3_radial_10876_3228)" fill-opacity="0.6"/>
<path id="Vector_5" d="M21.9984 44.0931C36.5828 44.0931 43.8719 34.2993 43.8719 22.2181C43.8719 10.1399 36.5828 0.346191 21.9969 0.346191C7.41406 0.346191 0.125 10.1399 0.125 22.2196C0.125 34.2993 7.4125 44.0931 21.9984 44.0931Z" fill="url(#paint4_radial_10876_3228)"/>
<path id="Vector_6" d="M21.9984 44.0931C36.5828 44.0931 43.8719 34.2993 43.8719 22.2181C43.8719 10.1399 36.5828 0.346191 21.9969 0.346191C7.41406 0.346191 0.125 10.1399 0.125 22.2196C0.125 34.2993 7.4125 44.0931 21.9984 44.0931Z" fill="url(#paint5_radial_10876_3228)"/>
<path id="Vector_7" d="M21.9984 44.0931C36.5828 44.0931 43.8719 34.2993 43.8719 22.2181C43.8719 10.1399 36.5828 0.346191 21.9969 0.346191C7.41406 0.346191 0.125 10.1399 0.125 22.2196C0.125 34.2993 7.4125 44.0931 21.9984 44.0931Z" fill="url(#paint6_radial_10876_3228)"/>
<path id="Vector_8" d="M21.9984 44.0931C36.5828 44.0931 43.8719 34.2993 43.8719 22.2181C43.8719 10.1399 36.5828 0.346191 21.9969 0.346191C7.41406 0.346191 0.125 10.1399 0.125 22.2196C0.125 34.2993 7.4125 44.0931 21.9984 44.0931Z" fill="url(#paint7_radial_10876_3228)"/>
<path id="Vector_9" d="M12.6241 30.8149V26.0337C12.6241 25.437 12.3871 24.8647 11.9651 24.4427C11.5431 24.0207 10.9708 23.7837 10.3741 23.7837C9.06161 23.7837 8.02255 24.9056 8.0038 26.2196C7.97255 28.3462 7.6788 31.1618 6.37411 31.5962C1.68661 33.1587 0.124109 40.1899 4.03036 43.3149C7.15536 45.8149 10.2804 45.6587 12.6241 45.6587H16.9429C17.3782 45.6591 17.801 45.5124 18.1425 45.2424C18.484 44.9724 18.7243 44.595 18.8243 44.1713C18.9244 43.7475 18.8783 43.3025 18.6936 42.9082C18.509 42.514 18.1965 42.1937 17.8069 41.9993L17.3116 41.7524H18.4366C18.7851 41.7523 19.1236 41.6357 19.3983 41.4211C19.6729 41.2065 19.8679 40.9062 19.9522 40.5681L20.0569 40.1431C20.1021 39.9633 20.1056 39.7755 20.0673 39.5941C20.0289 39.4128 19.9497 39.2425 19.8357 39.0964C19.7216 38.9502 19.5757 38.832 19.4091 38.7508C19.2425 38.6695 19.0595 38.6273 18.8741 38.6274L19.3897 38.3696C19.7041 38.2118 19.9685 37.9697 20.1532 37.6703C20.3379 37.3709 20.4357 37.0261 20.4357 36.6743C20.4357 36.3225 20.3379 35.9777 20.1532 35.6783C19.9685 35.3789 19.7041 35.1368 19.3897 34.979L18.8741 34.7212H21.6085C22.1265 34.7212 22.6233 34.5154 22.9896 34.1491C23.3558 33.7829 23.5616 33.2861 23.5616 32.7681C23.5616 32.2501 23.3558 31.7533 22.9896 31.387C22.6233 31.0207 22.1265 30.8149 21.6085 30.8149H12.6241Z" fill="url(#paint8_radial_10876_3228)"/>
<path id="Vector_10" d="M17.3125 26.9087C17.3125 26.9087 19.0688 24.8727 22.3906 25.3462C25.7125 25.8196 26.6875 28.4712 26.6875 28.4712" stroke="#402A32" stroke-width="3.125" stroke-linecap="round" stroke-linejoin="round"/>
<path id="Vector_11" d="M11.0887 25.493C15.1212 25.493 18.3902 22.224 18.3902 18.1915C18.3902 14.1589 15.1212 10.8899 11.0887 10.8899C7.05613 10.8899 3.78711 14.1589 3.78711 18.1915C3.78711 22.224 7.05613 25.493 11.0887 25.493Z" fill="url(#paint9_radial_10876_3228)"/>
<path id="Vector_12" d="M27.0687 25.6384C30.7311 25.6384 33.7 22.6694 33.7 19.0071C33.7 15.3448 30.7311 12.3759 27.0687 12.3759C23.4064 12.3759 20.4375 15.3448 20.4375 19.0071C20.4375 22.6694 23.4064 25.6384 27.0687 25.6384Z" fill="url(#paint10_radial_10876_3228)"/>
<path id="Vector_13" d="M13.2811 22.5712C14.1525 22.5847 15.018 22.4246 15.827 22.1004C16.636 21.7762 17.3725 21.2944 17.9935 20.6829C18.6145 20.0713 19.1077 19.3424 19.4443 18.5385C19.7809 17.7346 19.9543 16.8717 19.9543 16.0001C19.9543 15.1286 19.7809 14.2657 19.4443 13.4618C19.1077 12.6579 18.6145 11.929 17.9935 11.3174C17.3725 10.7059 16.636 10.224 15.827 9.89985C15.018 9.57565 14.1525 9.41561 13.2811 9.42905C11.5559 9.45566 9.91033 10.1597 8.69972 11.3891C7.4891 12.6185 6.81055 14.2747 6.81055 16.0001C6.81055 17.7256 7.4891 19.3818 8.69972 20.6112C9.91033 21.8406 11.5559 22.5446 13.2811 22.5712ZM30.6998 22.6916C32.4588 22.6916 34.1456 21.9928 35.3894 20.7491C36.6331 19.5053 37.3319 17.8184 37.3319 16.0595C37.3319 14.3006 36.6331 12.6137 35.3894 11.37C34.1456 10.1262 32.4588 9.42749 30.6998 9.42749C28.9407 9.42749 27.2536 10.1263 26.0097 11.3702C24.7658 12.6141 24.067 14.3012 24.067 16.0603C24.067 17.8194 24.7658 19.5065 26.0097 20.7504C27.2536 21.9943 28.9407 22.6916 30.6998 22.6916Z" fill="white"/>
<path id="Vector_14" fill-rule="evenodd" clip-rule="evenodd" d="M17.3125 15.1899C17.3125 16.4331 16.8186 17.6254 15.9396 18.5045C15.0605 19.3836 13.8682 19.8774 12.625 19.8774C11.3818 19.8774 10.1895 19.3836 9.31044 18.5045C8.43136 17.6254 7.9375 16.4331 7.9375 15.1899C7.9375 13.9467 8.43136 12.7545 9.31044 11.8754C10.1895 10.9963 11.3818 10.5024 12.625 10.5024C13.8682 10.5024 15.0605 10.9963 15.9396 11.8754C16.8186 12.7545 17.3125 13.9467 17.3125 15.1899ZM34.5 15.1899C34.5 16.4331 34.0061 17.6254 33.1271 18.5045C32.248 19.3836 31.0557 19.8774 29.8125 19.8774C28.5693 19.8774 27.377 19.3836 26.4979 18.5045C25.6189 17.6254 25.125 16.4331 25.125 15.1899C25.125 13.9467 25.6189 12.7545 26.4979 11.8754C27.377 10.9963 28.5693 10.5024 29.8125 10.5024C31.0557 10.5024 32.248 10.9963 33.1271 11.8754C34.0061 12.7545 34.5 13.9467 34.5 15.1899Z" fill="url(#paint11_linear_10876_3228)"/>
<g id="Group_2" filter="url(#filter0_f_10876_3228)">
<path id="Vector_15" fill-rule="evenodd" clip-rule="evenodd" d="M16.8477 42.0462L16.9336 41.7056C16.9788 41.5256 16.9823 41.3378 16.9439 41.1563C16.9055 40.9748 16.8261 40.8044 16.7119 40.6583C16.5976 40.5121 16.4515 40.3939 16.2847 40.3127C16.1179 40.2316 15.9347 40.1896 15.7492 40.1899L16.2648 39.9321C16.5792 39.7743 16.8436 39.5322 17.0283 39.2328C17.213 38.9334 17.3108 38.5886 17.3108 38.2368C17.3108 37.885 17.213 37.5402 17.0283 37.2408C16.8436 36.9414 16.5792 36.6993 16.2648 36.5415L15.7492 36.2837H18.4836C19.0016 36.2837 19.4984 36.0779 19.8647 35.7116C20.2309 35.3454 20.4367 34.8486 20.4367 34.3306C20.4367 33.8126 20.2309 33.3158 19.8647 32.9495C19.4984 32.5832 19.0016 32.3774 18.4836 32.3774H9.49922V27.5962C9.49922 26.9995 9.26217 26.4272 8.84021 26.0052C8.41825 25.5832 7.84596 25.3462 7.24922 25.3462C5.93672 25.3462 4.89766 26.4681 4.87891 27.7821C4.85547 29.4353 4.67266 31.5024 3.98047 32.5478C6.38203 37.2993 10.6711 40.8071 16.8477 42.0462Z" fill="#E4694E"/>
</g>
<path id="Vector_16" d="M12.6241 30.8149V26.0337C12.6241 25.437 12.3871 24.8647 11.9651 24.4427C11.5431 24.0207 10.9708 23.7837 10.3741 23.7837C9.06161 23.7837 8.02255 24.9056 8.0038 26.2196C7.97255 28.3462 7.6788 31.1618 6.37411 31.5962C1.68661 33.1587 0.124109 40.1899 4.03036 43.3149C7.15536 45.8149 10.2804 45.6587 12.6241 45.6587H16.9429C17.3782 45.6591 17.801 45.5124 18.1425 45.2424C18.484 44.9724 18.7243 44.595 18.8243 44.1713C18.9244 43.7475 18.8783 43.3025 18.6936 42.9082C18.509 42.514 18.1965 42.1937 17.8069 41.9993L17.3116 41.7524H18.4366C18.7851 41.7523 19.1236 41.6357 19.3983 41.4211C19.6729 41.2065 19.8679 40.9062 19.9522 40.5681L20.0569 40.1431C20.1021 39.9633 20.1056 39.7755 20.0673 39.5941C20.0289 39.4128 19.9497 39.2425 19.8357 39.0964C19.7216 38.9502 19.5757 38.832 19.4091 38.7508C19.2425 38.6695 19.0595 38.6273 18.8741 38.6274L19.3897 38.3696C19.7041 38.2118 19.9685 37.9697 20.1532 37.6703C20.3379 37.3709 20.4357 37.0261 20.4357 36.6743C20.4357 36.3225 20.3379 35.9777 20.1532 35.6783C19.9685 35.3789 19.7041 35.1368 19.3897 34.979L18.8741 34.7212H21.6085C22.1265 34.7212 22.6233 34.5154 22.9896 34.1491C23.3558 33.7829 23.5616 33.2861 23.5616 32.7681C23.5616 32.2501 23.3558 31.7533 22.9896 31.387C22.6233 31.0207 22.1265 30.8149 21.6085 30.8149H12.6241Z" fill="url(#paint12_radial_10876_3228)"/>
<path id="Vector_17" d="M12.6241 30.8149V26.0337C12.6241 25.437 12.3871 24.8647 11.9651 24.4427C11.5431 24.0207 10.9708 23.7837 10.3741 23.7837C9.06161 23.7837 8.02255 24.9056 8.0038 26.2196C7.97255 28.3462 7.6788 31.1618 6.37411 31.5962C1.68661 33.1587 0.124109 40.1899 4.03036 43.3149C7.15536 45.8149 10.2804 45.6587 12.6241 45.6587H16.9429C17.3782 45.6591 17.801 45.5124 18.1425 45.2424C18.484 44.9724 18.7243 44.595 18.8243 44.1713C18.9244 43.7475 18.8783 43.3025 18.6936 42.9082C18.509 42.514 18.1965 42.1937 17.8069 41.9993L17.3116 41.7524H18.4366C18.7851 41.7523 19.1236 41.6357 19.3983 41.4211C19.6729 41.2065 19.8679 40.9062 19.9522 40.5681L20.0569 40.1431C20.1021 39.9633 20.1056 39.7755 20.0673 39.5941C20.0289 39.4128 19.9497 39.2425 19.8357 39.0964C19.7216 38.9502 19.5757 38.832 19.4091 38.7508C19.2425 38.6695 19.0595 38.6273 18.8741 38.6274L19.3897 38.3696C19.7041 38.2118 19.9685 37.9697 20.1532 37.6703C20.3379 37.3709 20.4357 37.0261 20.4357 36.6743C20.4357 36.3225 20.3379 35.9777 20.1532 35.6783C19.9685 35.3789 19.7041 35.1368 19.3897 34.979L18.8741 34.7212H21.6085C22.1265 34.7212 22.6233 34.5154 22.9896 34.1491C23.3558 33.7829 23.5616 33.2861 23.5616 32.7681C23.5616 32.2501 23.3558 31.7533 22.9896 31.387C22.6233 31.0207 22.1265 30.8149 21.6085 30.8149H12.6241Z" fill="url(#paint13_radial_10876_3228)"/>
<path id="Vector_18" d="M16.5312 4.25244C16.0109 3.73213 14.5 2.68994 12.625 2.68994C10.75 2.68994 9.23906 3.73213 8.71875 4.25244M25.9062 10.5024C25.9062 10.5024 27.4688 8.93994 30.5938 8.93994C33.7188 8.93994 35.2812 10.5024 35.2812 10.5024" stroke="#402A32" stroke-width="1.5625" stroke-linecap="round" stroke-linejoin="round"/>
<g id="Group_3" opacity="0.8" filter="url(#filter1_f_10876_3228)">
<path id="Vector_19" d="M12.625 33.1587H23.5625V34.7212H12.625V33.1587Z" fill="#FFA048"/>
</g>
<path id="Vector_20" d="M14.1875 34.7212H18.875C19.2894 34.7212 19.6868 34.8858 19.9799 35.1788C20.2729 35.4719 20.4375 35.8693 20.4375 36.2837L14.1875 34.7212Z" fill="url(#paint14_linear_10876_3228)"/>
<path id="Vector_21" d="M14.1875 41.7524H17.3125C17.7269 41.7524 18.1243 41.9171 18.4174 42.2101C18.7104 42.5031 18.875 42.9005 18.875 43.3149L14.1875 41.7524Z" fill="url(#paint15_linear_10876_3228)"/>
<path id="Vector_22" d="M14.1875 38.6274H18.875C19.2894 38.6274 19.6868 38.7921 19.9799 39.0851C20.2729 39.3781 20.4375 39.7755 20.4375 40.1899L14.1875 38.6274Z" fill="url(#paint16_linear_10876_3228)"/>
</g>
<defs>
<filter id="filter0_f_10876_3228" x="0.855469" y="22.2212" width="22.707" height="22.95" filterUnits="userSpaceOnUse" color-interpolation-filters="sRGB">
<feFlood flood-opacity="0" result="BackgroundImageFix"/>
<feBlend mode="normal" in="SourceGraphic" in2="BackgroundImageFix" result="shape"/>
<feGaussianBlur stdDeviation="1.5625" result="effect1_foregroundBlur_10876_3228"/>
</filter>
<filter id="filter1_f_10876_3228" x="10.2812" y="30.8149" width="15.625" height="6.25" filterUnits="userSpaceOnUse" color-interpolation-filters="sRGB">
<feFlood flood-opacity="0" result="BackgroundImageFix"/>
<feBlend mode="normal" in="SourceGraphic" in2="BackgroundImageFix" result="shape"/>
<feGaussianBlur stdDeviation="1.17188" result="effect1_foregroundBlur_10876_3228"/>
</filter>
<radialGradient id="paint0_radial_10876_3228" cx="0" cy="0" r="1" gradientUnits="userSpaceOnUse" gradientTransform="translate(36.844 11.283) rotate(132.839) scale(58.5989)">
<stop stop-color="#FFF478"/>
<stop offset="0.475" stop-color="#FFB02E"/>
<stop offset="1" stop-color="#F70A8D"/>
</radialGradient>
<radialGradient id="paint1_radial_10876_3228" cx="0" cy="0" r="1" gradientUnits="userSpaceOnUse" gradientTransform="translate(36.8419 11.2847) rotate(131.878) scale(60.8573)">
<stop stop-color="#FFF478"/>
<stop offset="0.475" stop-color="#FFB02E"/>
<stop offset="1" stop-color="#F70A8D"/>
</radialGradient>
<radialGradient id="paint2_radial_10876_3228" cx="0" cy="0" r="1" gradientUnits="userSpaceOnUse" gradientTransform="translate(21.9989 16.752) rotate(101.31) scale(27.8853 35.7158)">
<stop offset="0.788" stop-color="#F59639" stop-opacity="0"/>
<stop offset="0.973" stop-color="#FF7DCE"/>
</radialGradient>
<radialGradient id="paint3_radial_10876_3228" cx="0" cy="0" r="1" gradientUnits="userSpaceOnUse" gradientTransform="translate(25.125 19.0962) rotate(135) scale(64.0815)">
<stop offset="0.315" stop-opacity="0"/>
<stop offset="1"/>
</radialGradient>
<radialGradient id="paint4_radial_10876_3228" cx="0" cy="0" r="1" gradientUnits="userSpaceOnUse" gradientTransform="translate(21.9999 23.7849) rotate(77.692) scale(43.9795)">
<stop offset="0.508" stop-color="#7D6133" stop-opacity="0"/>
<stop offset="1" stop-color="#715B32"/>
</radialGradient>
<radialGradient id="paint5_radial_10876_3228" cx="0" cy="0" r="1" gradientUnits="userSpaceOnUse" gradientTransform="translate(22.7813 23.0024) rotate(55.713) scale(20.8023 15.0786)">
<stop stop-color="#FFB849"/>
<stop offset="1" stop-color="#FFB847" stop-opacity="0"/>
</radialGradient>
<radialGradient id="paint6_radial_10876_3228" cx="0" cy="0" r="1" gradientUnits="userSpaceOnUse" gradientTransform="translate(29.0312 25.3462) rotate(9.86582) scale(18.2384)">
<stop stop-color="#FFA64B"/>
<stop offset="0.9" stop-color="#FFAE46" stop-opacity="0"/>
</radialGradient>
<radialGradient id="paint7_radial_10876_3228" cx="0" cy="0" r="1" gradientUnits="userSpaceOnUse" gradientTransform="translate(24.3438 20.6591) rotate(43.971) scale(92.2701)">
<stop offset="0.185" stop-opacity="0"/>
<stop offset="1" stop-opacity="0.4"/>
</radialGradient>
<radialGradient id="paint8_radial_10876_3228" cx="0" cy="0" r="1" gradientUnits="userSpaceOnUse" gradientTransform="translate(21.2179 31.5962) rotate(-178.264) scale(25.7931 24.0526)">
<stop offset="0.066" stop-color="#FFEA67"/>
<stop offset="0.593" stop-color="#FFC13F"/>
<stop offset="0.904" stop-color="#DF9030"/>
</radialGradient>
<radialGradient id="paint9_radial_10876_3228" cx="0" cy="0" r="1" gradientUnits="userSpaceOnUse" gradientTransform="translate(16.77 12.5101) rotate(135) scale(15.9416 8.2508)">
<stop stop-color="#392108"/>
<stop offset="1" stop-color="#C87928" stop-opacity="0"/>
</radialGradient>
<radialGradient id="paint10_radial_10876_3228" cx="0" cy="0" r="1" gradientUnits="userSpaceOnUse" gradientTransform="translate(32.2281 13.8488) rotate(133.664) scale(14.8128 8.36208)">
<stop stop-color="#392108"/>
<stop offset="1" stop-color="#C87928" stop-opacity="0"/>
</radialGradient>
<linearGradient id="paint11_linear_10876_3228" x1="22.7812" y1="8.15869" x2="21.2187" y2="19.0962" gradientUnits="userSpaceOnUse">
<stop stop-color="#553B3E"/>
<stop offset="1" stop-color="#3D2432"/>
</linearGradient>
<radialGradient id="paint12_radial_10876_3228" cx="0" cy="0" r="1" gradientUnits="userSpaceOnUse" gradientTransform="translate(21.2179 31.5962) rotate(-178.264) scale(25.7931 24.0526)">
<stop offset="0.066" stop-color="#FFEA67"/>
<stop offset="0.593" stop-color="#FFC13F"/>
<stop offset="0.904" stop-color="#DF9030"/>
</radialGradient>
<radialGradient id="paint13_radial_10876_3228" cx="0" cy="0" r="1" gradientUnits="userSpaceOnUse" gradientTransform="translate(13.4054 32.3774) rotate(172.235) scale(17.3466 17.7869)">
<stop offset="0.5" stop-color="#FFEA67" stop-opacity="0"/>
<stop offset="0.851" stop-color="#F9708E"/>
</radialGradient>
<linearGradient id="paint14_linear_10876_3228" x1="16.5312" y1="34.7212" x2="18.875" y2="37.0649" gradientUnits="userSpaceOnUse">
<stop stop-color="#FA9428"/>
<stop offset="1" stop-color="#FA9428" stop-opacity="0"/>
</linearGradient>
<linearGradient id="paint15_linear_10876_3228" x1="14.9688" y1="41.7524" x2="17.3125" y2="44.0962" gradientUnits="userSpaceOnUse">
<stop stop-color="#FA9428"/>
<stop offset="1" stop-color="#FA9428" stop-opacity="0"/>
</linearGradient>
<linearGradient id="paint16_linear_10876_3228" x1="14.9688" y1="38.6274" x2="17.3125" y2="40.9712" gradientUnits="userSpaceOnUse">
<stop stop-color="#FA9428"/>
<stop offset="1" stop-color="#FA9428" stop-opacity="0"/>
</linearGradient>
</defs>
</svg>
